<svg id="visual" viewBox="0 0 900 600" width="900" height="600" xmlns="http://www.w3.org/2000/svg" xmlns:xlink="http://www.w3.org/1999/xlink" version="1.1"><path d="M0 97L13.7 125C27.3 153 54.7 209 82 215C109.3 221 136.7 177 163.8 176C191 175 218 217 245.2 223C272.3 229 299.7 199 327 182C354.3 165 381.7 161 409 148C436.3 135 463.7 113 491 121C518.3 129 545.7 167 573 177C600.3 187 627.7 169 654.8 156C682 143 709 135 736.2 135C763.3 135 790.7 143 818 169C845.3 195 872.7 239 886.3 261L900 283L900 0L886.3 0C872.7 0 845.3 0 818 0C790.7 0 763.3 0 736.2 0C709 0 682 0 654.8 0C627.7 0 600.3 0 573 0C545.7 0 518.3 0 491 0C463.7 0 436.3 0 409 0C381.7 0 354.3 0 327 0C299.7 0 272.3 0 245.2 0C218 0 191 0 163.8 0C136.7 0 109.3 0 82 0C54.7 0 27.3 0 13.7 0L0 0Z" fill="#6198ff"></path><path d="M0 157L13.7 181C27.3 205 54.7 253 82 262C109.3 271 136.7 241 163.8 249C191 257 218 303 245.2 312C272.3 321 299.7 293 327 269C354.3 245 381.7 225 409 213C436.3 201 463.7 197 491 209C518.3 221 545.7 249 573 250C600.3 251 627.7 225 654.8 214C682 203 709 207 736.2 210C763.3 213 790.7 215 818 239C845.3 263 872.7 309 886.3 332L900 355L900 281L886.3 259C872.7 237 845.3 193 818 167C790.7 141 763.3 133 736.2 133C709 133 682 141 654.8 154C627.7 167 600.3 185 573 175C545.7 165 518.3 127 491 119C463.7 111 436.3 133 409 146C381.7 159 354.3 163 327 180C299.7 197 272.3 227 245.2 221C218 215 191 173 163.8 174C136.7 175 109.3 219 82 213C54.7 207 27.3 151 13.7 123L0 95Z" fill="#3c80ff"></path><path d="M0 301L13.7 313C27.3 325 54.7 349 82 344C109.3 339 136.7 305 163.8 311C191 317 218 363 245.2 383C272.3 403 299.7 397 327 393C354.3 389 381.7 387 409 374C436.3 361 463.7 337 491 346C518.3 355 545.7 397 573 398C600.3 399 627.7 359 654.8 345C682 331 709 343 736.2 344C763.3 345 790.7 335 818 346C845.3 357 872.7 389 886.3 405L900 421L900 353L886.3 330C872.7 307 845.3 261 818 237C790.7 213 763.3 211 736.2 208C709 205 682 201 654.8 212C627.7 223 600.3 249 573 248C545.7 247 518.3 219 491 207C463.7 195 436.3 199 409 211C381.7 223 354.3 243 327 267C299.7 291 272.3 319 245.2 310C218 301 191 255 163.8 247C136.7 239 109.3 269 82 260C54.7 251 27.3 203 13.7 179L0 155Z" fill="#0066ff"></path><path d="M0 541L13.7 534C27.3 527 54.7 513 82 504C109.3 495 136.7 491 163.8 496C191 501 218 515 245.2 519C272.3 523 299.7 517 327 520C354.3 523 381.7 535 409 542C436.3 549 463.7 551 491 551C518.3 551 545.7 549 573 545C600.3 541 627.7 535 654.8 529C682 523 709 517 736.2 516C763.3 515 790.7 519 818 523C845.3 527 872.7 531 886.3 533L900 535L900 419L886.3 403C872.7 387 845.3 355 818 344C790.7 333 763.3 343 736.2 342C709 341 682 329 654.8 343C627.7 357 600.3 397 573 396C545.7 395 518.3 353 491 344C463.7 335 436.3 359 409 372C381.7 385 354.3 387 327 391C299.7 395 272.3 401 245.2 381C218 361 191 315 163.8 309C136.7 303 109.3 337 82 342C54.7 347 27.3 323 13.7 311L0 299Z" fill="#0059dd"></path><path d="M0 601L13.7 601C27.3 601 54.7 601 82 601C109.3 601 136.7 601 163.8 601C191 601 218 601 245.2 601C272.3 601 299.7 601 327 601C354.3 601 381.7 601 409 601C436.3 601 463.7 601 491 601C518.3 601 545.7 601 573 601C600.3 601 627.7 601 654.8 601C682 601 709 601 736.2 601C763.3 601 790.7 601 818 601C845.3 601 872.7 601 886.3 601L900 601L900 533L886.3 531C872.7 529 845.3 525 818 521C790.7 517 763.3 513 736.2 514C709 515 682 521 654.8 527C627.7 533 600.3 539 573 543C545.7 547 518.3 549 491 549C463.7 549 436.3 547 409 540C381.7 533 354.3 521 327 518C299.7 515 272.3 521 245.2 517C218 513 191 499 163.8 494C136.7 489 109.3 493 82 502C54.7 511 27.3 525 13.7 532L0 539Z" fill="#004cbb"></path></svg>